# Blender v2.80 (sub 41) OBJ File: ''
# www.blender.org
o Cube.004
v 0.281250 0.406250 -0.281250
v -0.281250 0.406250 -0.281250
v -0.281250 0.406250 0.281250
v 0.281250 0.406250 0.281250
v 0.281250 -0.406250 0.281250
v -0.281250 -0.406250 0.281250
v -0.281250 -0.406250 -0.281250
v 0.281250 -0.406250 -0.281250
vt 0.281250 0.312500
vt 0.562500 0.312500
vt 0.562500 0.593750
vt 0.281250 0.593750
vt 0.281250 0.593750
vt 0.281250 1.000000
vt 0.000000 1.000000
vt -0.000000 0.593750
vt 0.281250 0.593750
vt 0.281250 1.000000
vt -0.000000 1.000000
vt 0.000000 0.593750
vt 0.000000 0.312500
vt 0.281250 0.312500
vt 0.281250 0.562500
vt -0.000000 0.562500
vt 0.281250 0.593750
vt 0.281250 1.000000
vt 0.000000 1.000000
vt 0.000000 0.593750
vt 0.281250 0.593750
vt 0.281250 1.000000
vt 0.000000 1.000000
vt -0.000000 0.593750
vn 0.0000 1.0000 0.0000
vn 0.0000 -0.0000 1.0000
vn -1.0000 -0.0000 0.0000
vn 0.0000 -1.0000 -0.0000
vn 1.0000 0.0000 0.0000
vn 0.0000 0.0000 -1.0000
s 1
f 1/1/1 2/2/1 3/3/1 4/4/1
f 5/5/2 4/6/2 3/7/2 6/8/2
f 6/9/3 3/10/3 2/11/3 7/12/3
f 7/13/4 8/14/4 5/15/4 6/16/4
f 8/17/5 1/18/5 4/19/5 5/20/5
f 7/21/6 2/22/6 1/23/6 8/24/6
