# Blender v2.80 (sub 41) OBJ File: ''
# www.blender.org
o Log_Cube.002
v 0.250000 0.000000 0.000000
v 0.000000 0.000000 -0.250000
v 0.000000 1.000000 -0.250000
v 0.250000 1.000000 0.000000
v 0.000000 0.000000 -0.750000
v 0.250000 0.000000 -1.000000
v 0.250000 1.000000 -1.000000
v 0.000000 1.000000 -0.750000
v 1.000000 0.000000 -0.250000
v 0.750000 0.000000 0.000000
v 0.750000 1.000000 0.000000
v 1.000000 1.000000 -0.250000
v 0.750000 0.000000 -1.000000
v 1.000000 0.000000 -0.750000
v 1.000000 1.000000 -0.750000
v 0.750000 1.000000 -1.000000
vt 0.662500 0.000000
vt 0.662500 1.000000
vt 0.550000 1.000000
vt 0.550000 0.000000
vt 0.087500 0.000000
vt 0.087500 1.000000
vt 0.000000 1.000000
vt 0.000000 -0.000000
vt 0.800000 0.250000
vt 0.850000 0.000000
vt 0.950000 0.000000
vt 1.000000 0.250000
vt 1.000000 0.750000
vt 0.950000 1.000000
vt 0.850000 1.000000
vt 0.800000 0.750000
vt 0.475000 -0.000000
vt 0.475000 1.000000
vt 0.375000 1.000000
vt 0.375000 -0.000000
vt 0.275000 0.000000
vt 0.275000 1.000000
vt 0.175000 1.000000
vt 0.175000 0.000000
vt 0.287500 1.000000
vt 0.287500 0.000000
vt 0.362500 0.000000
vt 0.362500 1.000000
vt 0.162500 0.000000
vt 0.162500 1.000000
vt 0.737500 0.000000
vt 0.737500 1.000000
vt 0.850000 1.000000
vt 0.800000 0.750000
vt 0.800000 0.250000
vt 0.850000 -0.000000
vt 0.950000 -0.000000
vt 1.000000 0.250000
vt 1.000000 0.750000
vt 0.950000 1.000000
vn 0.0000 0.0000 1.0000
vn 1.0000 0.0000 0.0000
vn 0.0000 1.0000 0.0000
vn -1.0000 0.0000 0.0000
vn 0.0000 0.0000 -1.0000
vn -0.7071 0.0000 0.7071
vn -0.7071 0.0000 -0.7071
vn 0.7071 0.0000 -0.7071
vn 0.7071 0.0000 0.7071
vn 0.0000 -1.0000 0.0000
s off
f 10/1/1 11/2/1 4/3/1 1/4/1
f 14/5/2 15/6/2 12/7/2 9/8/2
f 15/9/3 16/10/3 7/11/3 8/12/3 3/13/3 4/14/3 11/15/3 12/16/3
f 2/17/4 3/18/4 8/19/4 5/20/4
f 6/21/5 7/22/5 16/23/5 13/24/5
f 1/4/6 4/3/6 3/18/6 2/17/6
f 7/25/7 6/26/7 5/27/7 8/28/7
f 15/6/8 14/5/8 13/29/8 16/30/8
f 11/2/9 10/1/9 9/31/9 12/32/9
f 5/33/10 6/34/10 13/35/10 14/36/10 9/37/10 10/38/10 1/39/10 2/40/10
